<?xml version="1.0" encoding="utf-8"?>
<!-- Generator: Adobe Illustrator 26.3.1, SVG Export Plug-In . SVG Version: 6.00 Build 0)  -->
<svg version="1.1" id="Livello_1" xmlns:serif="http://www.serif.com/"
	 xmlns="http://www.w3.org/2000/svg" xmlns:xlink="http://www.w3.org/1999/xlink" x="0px" y="0px" viewBox="0 0 595.3 841.9"
	 style="enable-background:new 0 0 595.3 841.9;" xml:space="preserve">
<style type="text/css">
	.st0{fill:#393536;}
	.st1{fill:#3668BB;}
	.st2{fill:#4FB3E9;}
	.st3{fill:#FFFFFF;}
	.st4{fill:#393536;stroke:#FFFFFF;stroke-width:5;stroke-miterlimit:10;}
	.st5{fill:#FF6100;}
</style>
<g id="g10" transform="matrix(1.33333,0,0,-1.33333,-483,492.701)">
	<g id="g12">
		<g id="g14">
			<g id="g20" transform="matrix(1,0,0,1,392.933,233.048)">
				<path id="path22" class="st0" d="M87.2-426.9l-10.3,21h-0.4l-10.2-21H87.2z M49.3-443.1L75-391.6c0.2,0.5,1,0.8,1.4,0.8h0.8
					c0.4,0,1.2-0.4,1.4-0.8l25.5-51.5c0.5-1-0.2-2-1.4-2h-5.3c-1,0-1.6,0.5-1.9,1.1l-5.2,10.5H63c-1.7-3.5-3.4-7-5.1-10.5
					c-0.2-0.5-0.9-1.1-1.9-1.1h-5.3C49.5-445.1,48.8-444.1,49.3-443.1"/>
			</g>
			<g id="g24" transform="matrix(1,0,0,1,402.653,235.459)">
				<path id="path26" class="st0" d="M114.8-420l-16.5,23.9c-0.7,1,0,2.1,1.4,2.1h7.1c0.6,0,1.2-0.3,1.4-0.7l11.8-18.3h0.1
					l11.9,18.3c0.2,0.3,0.7,0.7,1.3,0.7h7.1c1.4,0,2.1-1.1,1.4-2.1L125.3-420l17.1-25.3c0.7-1.1,0-2.1-1.4-2.1h-6.4
					c-0.7,0-1.3,0.4-1.4,0.7L120-427.2h-0.2l-12.9-19.6c-0.2-0.3-0.7-0.7-1.4-0.7h-6.4c-1.5,0-2.2,1.1-1.5,2.1L114.8-420z"/>
			</g>
			<g id="g28" transform="matrix(1,0,0,1,415.503,241.736)">
				<path id="path30" class="st0" d="M151.3-402.2c-0.5,1,0.2,2,1.4,2h5.9c0.7,0,1.3-0.5,1.4-0.8l18.4-37.9h0.5l18.4,37.9
					c0.2,0.4,0.7,0.8,1.4,0.8h5.9c1.3,0,1.9-1,1.4-2l-25.6-51.5c-0.2-0.5-0.7-0.8-1.4-0.8h-0.8c-0.6,0-1.2,0.4-1.4,0.8L151.3-402.2z
					"/>
			</g>
			<g id="g32" transform="matrix(1,0,0,1,438.789,233.048)">
				<path id="path34" class="st0" d="M217.4-426.9l-10.3,21h-0.4l-10.2-21H217.4z M179.6-443.1l25.6,51.5c0.2,0.5,1,0.8,1.4,0.8h0.8
					c0.4,0,1.2-0.4,1.4-0.8l25.5-51.5c0.5-1-0.2-2-1.4-2h-5.3c-1,0-1.6,0.5-1.9,1.1l-5.2,10.5h-27.3c-1.7-3.5-3.4-7-5.1-10.5
					c-0.3-0.5-0.9-1.1-1.9-1.1H181C179.7-445.1,179.1-444.1,179.6-443.1"/>
			</g>
			<g id="g36" transform="matrix(1,0,0,1,445.378,241.875)">
				<path id="path38" class="st0" d="M236.1-401.8c0,0.8,0.7,1.5,1.6,1.5h5.5c0.8,0,1.6-0.7,1.6-1.5v-45h22.6c0.9,0,1.6-0.7,1.6-1.5
					v-4.2c0-0.8-0.7-1.5-1.6-1.5h-29.7c-0.9,0-1.6,0.7-1.6,1.5V-401.8z"/>
			</g>
			<g id="g40" transform="matrix(1,0,0,1,456.228,241.875)">
				<path id="path42" class="st0" d="M266.9-401.8c0,0.8,0.7,1.5,1.6,1.5h5.5c0.8,0,1.6-0.7,1.6-1.5v-45h22.6c0.9,0,1.6-0.7,1.6-1.5
					v-4.2c0-0.8-0.7-1.5-1.6-1.5h-29.7c-0.9,0-1.6,0.7-1.6,1.5V-401.8z"/>
			</g>
			<g id="g44" transform="matrix(1,0,0,1,467.078,241.875)">
				<path id="path46" class="st0" d="M297.8-401.8c0,0.8,0.7,1.5,1.6,1.5h33.4c0.9,0,1.6-0.7,1.6-1.5v-4.3c0-0.8-0.7-1.5-1.6-1.5
					h-26.4v-15.6h22.3c0.8,0,1.6-0.7,1.6-1.5v-4.3c0-0.8-0.8-1.5-1.6-1.5h-22.3v-16.5h26.4c0.9,0,1.6-0.7,1.6-1.5v-4.2
					c0-0.8-0.7-1.5-1.6-1.5h-33.4c-0.9,0-1.6,0.7-1.6,1.5V-401.8z"/>
			</g>
			<g id="g48" transform="matrix(1,0,0,1,381.059,228.78)">
				<path id="path50" class="st0" d="M53.4-439l-0.4,2.2l-0.8,4.2l-5,27.4l-1.1,6l1.5,2.9l4.1,7.9c0.5,1-0.2,2-1.5,2h-6.2
					c-0.8,0-1.3-0.5-1.5-0.8l-0.1-0.2l-1.6-3.2l-4.1-8.2l-1.6-3.1L23.6-425H23l-10.6,21.1l-2.6,5.2l-4.1,8.2l-1.6,3.1L4-387.2
					c-0.2,0.4-0.8,0.8-1.5,0.8h-6.2c-1.3,0-2-1-1.5-2l4.1-8l1.3-2.5l-1.7-9.3l-5.1-27.6l-0.2-1l-0.4-2.2c-0.2-1.1,0.4-1.8,1.5-1.8
					h5.1c0.6,0,1.3,0.6,1.4,1.1l0.5,2.9l4.4,27.3l7.7-15l7.9-15.3c0.3-0.5,0.9-0.8,1.5-0.8h0.9c0.7,0,1.2,0.4,1.5,0.8l8.3,16
					l7.1,13.7l4.4-26.7l0.5-2.9c0.2-0.5,0.8-1.1,1.5-1.1H52C53.1-440.8,53.7-440.1,53.4-439"/>
			</g>
			<g id="g52" transform="matrix(1,0,0,1,445.857,326.5)">
				<path id="path54" class="st1" d="M237.5-161.4l-19.9-32l-6.3-10.2H66l-6.3,10.2l-20,32.1l35.2,55.2h127.5L237.5-161.4z"/>
			</g>
			<g id="g56" transform="matrix(1,0,0,1,437.31,312.766)">
				<path id="path58" class="st2" d="M213.2-200.4l-60.6-97.5h-10.9l-56.1,90.3l-4.5,7.2H213.2z"/>
			</g>
			<g id="g64" transform="matrix(1,0,0,1,420.115,369.115)">
				<path id="path66" class="st3" d="M164.4-40.4c-6.4,0-12.4-3.2-15.8-8.7l-54.2-85.2L87-145.7h36.6l17.1-306.8l0.4-7.1h48.7
					l0.4,7.1l17.1,306.8h34.5l-7.3,11.5L180.2-49C176.7-43.6,170.8-40.4,164.4-40.4 M164.4-47.8c3.6,0,7.3-1.7,9.5-5.2l54.2-85.2
					h-28l-17.4-313.9h-34.5l-17.4,313.9h-30l54.2,85.2C157.1-49.6,160.7-47.8,164.4-47.8"/>
			</g>
			<g id="g68" transform="matrix(1,0,0,1,390.003,297.819)">
				<path id="path70" class="st4" d="M78.8-228.6L67.9-284l-2-10.6l-15.7-79.7L47-390c-0.3-1.8-2.2-3.6-4.5-4.8
					c-1.5-0.7-3.1-1.2-4.8-1.2H4.2c-2.3,0-4.3,0.4-5.9,1.2c-3.2,1.5-4.6,4.6-4,8.6l2.7,11.9l1.2,5.4L15-294.6l2.4,10.6l5.9,26.4
					l8.2,36.3l11.2,49.7L78.8-228.6z"/>
			</g>
			<g id="g72" transform="matrix(1,0,0,1,468.834,331.238)">
				<path id="path74" class="st4" d="M302.7-148l-27-42.4l-9.8-15.2l-37.2-58.3l-33.5-52.5l-6.7-10.6l-6.6-10.4l-54.4-85.3
					c-1.7-2.4-5.1-4.5-9.7-4.5h-5.7c-4,0-8,2.1-9.6,4.5l-51.8,81.6l-8.9,14l-6.7,10.6L0-260.9L-36.1-204l-8.3,13.1l-27.3,43
					c-3.3,5.3,1.2,10.6,9.7,10.6h40.6c4.6,0,8.5-2.4,9.7-4.5l0.6-1l10.4-16.8l10.6-17l16.6-26.7l3.1-5l6.5-10.5l7.7-12.3l52.9-85.1
					l6.6-10.6l10.5-16.9h3.4l10.5,16.9l6.6,10.6l59.8,96.2l0.8,1.3l6.5,10.5l3.1,5l16.6,26.6l10.6,17.1l10.4,16.8l0.6,1
					c1.2,2,4.5,4.5,9.7,4.5h40.5C301.7-137.4,306.2-142.7,302.7-148"/>
			</g>
			<g id="g76" transform="matrix(1,0,0,1,470.753,254.569)">
				<path id="path78" class="st4" d="M308.2-351.5c-1.5-0.7-3.5-1.2-5.8-1.2h-33.6c-1.8,0-3.5,0.4-5,1.2c-2.4,1.2-4.2,3-4.8,4.8
					l-3.2,15.7l-16.1,79.7l-2.2,10.6l-10.6,52.5l37.2,58.3l7.1-31.9l10.8-48.2l6.9-30.6l2.4-10.6l12.8-57.1l5-22.5l2.6-11.9
					C312.7-346.9,311.4-349.9,308.2-351.5"/>
			</g>
			<g id="g60" transform="matrix(1,0,0,1,414.962,260.934)">
				<path id="path62" class="st5" d="M143.6-238.3L132.3-33.8H99l57.9,90.9c2.8,4.4,7.5,7,12.7,7s9.9-2.6,12.7-7l57.9-90.9h-31.3
					l-13.6-204.7l-23-37h-5.5L143.6-238.3z"/>
			</g>
		</g>
	</g>
	<g id="text82">
	</g>
</g>
</svg>
